<?xml version="1.0" encoding="iso-8859-1"?>
<!-- Generator: Adobe Illustrator 19.0.0, SVG Export Plug-In . SVG Version: 6.00 Build 0)  -->
<!-- License: CC0. Made by SVG Repo: https://www.svgrepo.com/svg/246667/tap-finger -->
<svg version="1.1" id="Layer_1" xmlns="http://www.w3.org/2000/svg" xmlns:xlink="http://www.w3.org/1999/xlink" x="0px" y="0px"
	 viewBox="0 0 512.002 512.002" style="enable-background:new 0 0 512.002 512.002;" xml:space="preserve">
<path style="fill:#D9A382;" d="M303.045,311.939h-87.818c-12.05,0-21.818,9.768-21.818,21.818l0,0
	c0,12.05,9.768,21.818,21.818,21.818h87.818V311.939z"/>
<path style="fill:#E6B393;" d="M151.25,197.767L151.25,197.767c8.52-8.52,22.334-8.52,30.856,0l62.097,62.097
	c-8.52-8.52-8.52-22.334,0-30.856l0,0c8.52-8.52,22.334-8.52,30.856,0c-8.52-8.52-8.52-22.334,0-30.856l0,0
	c8.52-8.52,22.334-8.52,30.856,0c-8.52-8.52-8.52-22.334,0-30.856l0,0c8.52-8.52,22.334-8.52,30.856,0l69.188,69.188
	c10.013,10.013,12.966,24.403,8.879,37.008l89.284,89.284l-95.292,95.292l-89.284-89.284c-12.605,4.086-26.995,1.134-37.008-8.879
	L151.25,228.623C142.728,220.102,142.728,206.287,151.25,197.767z"/>
<path d="M296.409,131.947c1.513,2.346,4.056,3.624,6.653,3.624c1.467,0,2.952-0.408,4.277-1.262
	c3.67-2.366,4.727-7.259,2.362-10.929c-4.491-6.967-9.546-13.667-15.022-19.912c-2.88-3.283-7.876-3.611-11.158-0.731
	c-3.283,2.879-3.61,7.875-0.731,11.158C287.755,119.556,292.338,125.63,296.409,131.947z"/>
<path d="M168.213,366.658c-37.369,0-73.345-13.727-101.3-38.653c-3.259-2.905-8.257-2.62-11.163,0.64
	c-2.905,3.26-2.62,8.258,0.64,11.163c30.857,27.512,70.57,42.663,111.824,42.663c4.367,0,7.907-3.54,7.907-7.907
	C176.12,370.198,172.579,366.658,168.213,366.658z"/>
<path d="M15.813,214.259c0-47.633,21.742-91.68,59.65-120.847c3.461-2.663,4.108-7.627,1.445-11.088
	c-2.663-3.46-7.626-4.108-11.088-1.445C23.991,113.063,0,161.677,0,214.259c0,36.788,11.714,71.757,33.877,101.127
	c1.555,2.06,3.922,3.145,6.318,3.145c1.658,0,3.33-0.52,4.757-1.596c3.486-2.63,4.179-7.588,1.549-11.073
	C26.424,279.258,15.813,247.582,15.813,214.259z"/>
<path d="M117.564,70.51c16.241-5.74,33.281-8.651,50.647-8.651c34.071,0,66.317,11.048,93.251,31.951
	c1.442,1.119,3.148,1.66,4.842,1.66c2.359,0,4.693-1.051,6.253-3.059c2.677-3.449,2.05-8.417-1.399-11.093
	c-29.733-23.075-65.331-35.272-102.946-35.272c-19.166,0-37.979,3.214-55.917,9.554c-4.118,1.455-6.276,5.972-4.82,10.09
	C108.929,69.807,113.447,71.966,117.564,70.51z"/>
<path d="M273.34,168.29c1.218,0,2.454-0.283,3.612-0.878c3.883-1.999,5.41-6.766,3.412-10.649
	c-13.046-25.35-34.529-45.759-60.489-57.468c-3.981-1.795-8.663-0.023-10.458,3.956c-1.794,3.98-0.023,8.662,3.956,10.458
	c22.716,10.246,41.514,28.105,52.931,50.289C267.705,166.725,270.471,168.29,273.34,168.29z"/>
<path d="M168.213,324.49c-53.341,0-98.957-38.068-108.462-90.517c-0.779-4.297-4.898-7.148-9.19-6.37
	c-4.297,0.779-7.149,4.894-6.37,9.19c10.872,59.977,63.03,103.51,124.022,103.51c4.367,0,7.907-3.54,7.907-7.907
	C176.12,328.03,172.579,324.49,168.213,324.49z"/>
<path d="M42.672,203.059c-0.385,4.35,2.83,8.188,7.179,8.573c0.237,0.021,0.472,0.032,0.706,0.032c4.051,0,7.503-3.097,7.867-7.21
	c2.416-27.29,14.92-52.607,35.211-71.287c20.409-18.79,46.895-29.138,74.578-29.138c4.384,0,8.842,0.269,13.248,0.799
	c4.333,0.52,8.272-2.57,8.794-6.906c0.522-4.335-2.57-8.272-6.906-8.794c-5.031-0.605-10.124-0.912-15.136-0.912
	c-31.662,0-61.952,11.832-85.289,33.317C59.73,142.885,45.435,171.839,42.672,203.059z"/>
<path d="M168.213,282.321c-37.53,0-68.062-30.532-68.062-68.062c0-17.565,6.69-34.247,18.838-46.972
	c3.015-3.158,2.899-8.164-0.26-11.179c-3.158-3.015-8.163-2.899-11.179,0.26c-14.969,15.68-23.213,36.239-23.213,57.891
	c0,46.249,37.626,83.875,83.875,83.875c4.367,0,7.907-3.54,7.907-7.907C176.118,285.861,172.579,282.321,168.213,282.321z"/>
<path d="M145.564,150.072c7.286-2.571,14.905-3.874,22.648-3.874c29.927,0,56.034,19.17,64.967,47.701
	c1.058,3.381,4.178,5.546,7.543,5.546c0.783,0,1.579-0.117,2.365-0.363c4.167-1.305,6.488-5.74,5.184-9.907
	c-11.008-35.164-43.18-58.79-80.057-58.79c-9.541,0-18.93,1.607-27.911,4.776c-4.118,1.453-6.278,5.969-4.825,10.087
	C136.93,149.364,141.444,151.525,145.564,150.072z"/>
<path d="M423.63,271.108c2.988-14.523-1.433-29.562-12.083-40.213c0,0-69.167-69.167-69.188-69.188
	c-11.462-11.462-30.583-11.455-42.037,0c-5.615,5.614-8.707,13.079-8.707,21.019c0,0.39,0.007,0.78,0.022,1.167
	c-7.988-0.305-16.083,2.582-22.172,8.67c-6.091,6.091-8.981,14.19-8.67,22.186c-8-0.31-16.095,2.579-22.186,8.669
	c-3.552,3.552-6.015,7.785-7.39,12.285c0,0-43.481-43.481-43.525-43.525c-11.454-11.454-30.602-11.435-42.037-0.001
	c-11.433,11.434-11.413,30.626,0,42.038l69.819,69.819h-0.25c-16.39,0-29.725,13.335-29.725,29.725
	c0,16.39,13.335,29.724,29.725,29.724h59.7l2.016,2.016c10.652,10.652,25.693,15.07,40.214,12.084l38.559,38.559
	c3.088,3.088,8.094,3.088,11.181,0c3.088-3.088,3.088-8.094,0-11.181l-41.764-41.764c-2.1-2.101-5.2-2.846-8.029-1.93
	c-10.261,3.326-21.366,0.664-28.979-6.948c0,0-131.113-131.113-131.284-131.284c-5.354-5.354-5.337-14.336-0.001-19.674
	c5.369-5.37,14.302-5.373,19.675-0.001c0,0,61.944,61.945,62.096,62.096c7.197,7.197,18.409-3.955,11.182-11.181l-0.024-0.024
	c-5.401-5.426-5.391-14.234,0.024-19.649c5.424-5.424,14.25-5.425,19.674-0.001c7.229,7.229,18.37-3.992,11.182-11.181
	c-5.424-5.424-5.424-14.25,0-19.674c5.424-5.424,14.25-5.424,19.675,0c7.195,7.194,18.378-3.983,11.183-11.181
	c-5.373-5.375-5.372-14.302-0.002-19.674c5.369-5.37,14.316-5.361,19.675-0.001l69.188,69.188
	c7.613,7.614,10.275,18.717,6.948,28.979c-0.917,2.826-0.171,5.929,1.93,8.029l83.694,83.694l-84.111,84.111l-19.566-19.566
	c-3.088-3.088-8.094-3.088-11.181,0c-3.088,3.088-3.088,8.094,0,11.181l25.158,25.158c3.056,3.056,8.121,3.06,11.181,0
	c0,0,95.146-95.146,95.292-95.292c3.057-3.057,3.052-8.131,0-11.182L423.63,271.108z M259.115,347.669h-43.887
	c-7.67,0-13.911-6.241-13.911-13.911c0-7.67,6.241-13.911,13.911-13.911h16.063L259.115,347.669z"/>
</svg>
